<svg width="12" height="19" viewBox="0 0 12 19" fill="none" xmlns="http://www.w3.org/2000/svg">
<path d="M7.08984 12.7852H4.10156C4.10938 12.082 4.16406 11.4766 4.26562 10.9688C4.375 10.4531 4.55859 9.98828 4.81641 9.57422C5.08203 9.16016 5.43359 8.75 5.87109 8.34375C6.23828 8.01562 6.55859 7.70312 6.83203 7.40625C7.10547 7.10938 7.32031 6.80469 7.47656 6.49219C7.63281 6.17188 7.71094 5.81641 7.71094 5.42578C7.71094 4.97266 7.64062 4.59766 7.5 4.30078C7.36719 3.99609 7.16406 3.76562 6.89062 3.60938C6.625 3.45312 6.28906 3.375 5.88281 3.375C5.54688 3.375 5.23438 3.44922 4.94531 3.59766C4.65625 3.73828 4.41797 3.95703 4.23047 4.25391C4.05078 4.55078 3.95703 4.94141 3.94922 5.42578H0.550781C0.574219 4.35547 0.820312 3.47266 1.28906 2.77734C1.76562 2.07422 2.40234 1.55469 3.19922 1.21875C3.99609 0.875 4.89062 0.703125 5.88281 0.703125C6.97656 0.703125 7.91406 0.882812 8.69531 1.24219C9.47656 1.59375 10.0742 2.11328 10.4883 2.80078C10.9023 3.48047 11.1094 4.30859 11.1094 5.28516C11.1094 5.96484 10.9766 6.57031 10.7109 7.10156C10.4453 7.625 10.0977 8.11328 9.66797 8.56641C9.23828 9.01953 8.76562 9.48828 8.25 9.97266C7.80469 10.3711 7.5 10.7891 7.33594 11.2266C7.17969 11.6641 7.09766 12.1836 7.08984 12.7852ZM3.75 16.4062C3.75 15.9062 3.92188 15.4922 4.26562 15.1641C4.60938 14.8281 5.07031 14.6602 5.64844 14.6602C6.21875 14.6602 6.67578 14.8281 7.01953 15.1641C7.37109 15.4922 7.54688 15.9062 7.54688 16.4062C7.54688 16.8906 7.37109 17.3008 7.01953 17.6367C6.67578 17.9727 6.21875 18.1406 5.64844 18.1406C5.07031 18.1406 4.60938 17.9727 4.26562 17.6367C3.92188 17.3008 3.75 16.8906 3.75 16.4062Z" fill="#1D3A70"/>
</svg>
