<svg width="16" height="16" viewBox="0 0 16 16" fill="none" xmlns="http://www.w3.org/2000/svg">
<path d="M2.35294 10.9474V12.6316C2.35282 13.0565 2.50228 13.4657 2.77137 13.7773C3.04046 14.0889 3.40929 14.2797 3.80392 14.3116L3.92157 14.3158H6.27451V16H3.92157C3.08952 16 2.29154 15.6451 1.70319 15.0134C1.11484 14.3817 0.784314 13.5249 0.784314 12.6316V10.9474H2.35294ZM12.549 6.73684L16 16H14.3098L13.3678 13.4737H10.16L9.21961 16H7.5302L10.9804 6.73684H12.549ZM11.7647 9.16632L10.7867 11.7895H12.7412L11.7647 9.16632ZM4.70588 0V1.68421H7.84314V7.57895H4.70588V10.1053H3.13725V7.57895H0V1.68421H3.13725V0H4.70588ZM11.7647 0.842105C12.5968 0.842105 13.3947 1.19699 13.9831 1.82869C14.5714 2.46039 14.902 3.31717 14.902 4.21053V5.89474H13.3333V4.21053C13.3333 3.76385 13.1681 3.33546 12.8739 3.01961C12.5797 2.70376 12.1807 2.52632 11.7647 2.52632H9.41177V0.842105H11.7647ZM3.13725 3.36842H1.56863V5.89474H3.13725V3.36842ZM6.27451 3.36842H4.70588V5.89474H6.27451V3.36842Z" fill="#7B61FF"/>
</svg>
