<svg width="327" height="164" viewBox="0 0 327 164" fill="none" xmlns="http://www.w3.org/2000/svg">
<mask id="mask0_2_2768" style="mask-type:alpha" maskUnits="userSpaceOnUse" x="0" y="0" width="327" height="164">
<rect width="327" height="163.692" rx="16" fill="#1DAB87"/>
</mask>
<g mask="url(#mask0_2_2768)">
<path d="M46.189 -17.2307C25.5764 1.91526 -14.8864 46.7925 -11.8369 73.1334C-8.02495 106.06 40.7333 98.6239 47.883 96.5476C52.8968 95.0916 106.332 72.0359 116.074 48.2558C125.816 24.4758 96.1418 26.658 93.2024 27.4026C80.4926 30.6223 61.0129 37.6463 42.3769 68.7433C23.7409 99.8402 20.776 122.889 34.3295 133.864C45.1723 142.644 70.2495 141.856 93.4667 140.36C133.837 137.76 166.307 115.718 187.653 103.133C209 90.5477 289.446 41.0609 327 17.8906" stroke="#1DAB87" stroke-width="0.5" stroke-linecap="round"/>
</g>
</svg>
