<svg width="18" height="18" viewBox="0 0 18 18" fill="none" xmlns="http://www.w3.org/2000/svg">
<path d="M0 1.99503C0 0.89303 0.893 3.05176e-05 1.995 3.05176e-05H16.005C17.107 3.05176e-05 18 0.89303 18 1.99503V16.005C18 16.5341 17.7898 17.0416 17.4157 17.4157C17.0415 17.7898 16.5341 18 16.005 18H1.995C1.46589 18 0.958457 17.7898 0.584322 17.4157C0.210187 17.0416 0 16.5341 0 16.005V1.99503ZM2 2.00003V16H16V2.00003H2ZM4.972 15.18C4.35698 14.9136 3.77036 14.586 3.221 14.202C3.85527 13.2191 4.72596 12.4109 5.75339 11.8515C6.78082 11.2921 7.93216 10.9993 9.102 11C11.502 11 13.619 12.207 14.88 14.047C14.3412 14.4456 13.7636 14.789 13.156 15.072C12.6929 14.43 12.0838 13.9073 11.3789 13.5471C10.674 13.1868 9.8936 12.9993 9.102 13C7.387 13 5.872 13.864 4.972 15.18ZM9 10C8.54037 10 8.08525 9.9095 7.66061 9.73361C7.23597 9.55772 6.85013 9.29991 6.52513 8.9749C6.20012 8.6499 5.94231 8.26406 5.76642 7.83942C5.59053 7.41478 5.5 6.95966 5.5 6.50003C5.5 6.0404 5.59053 5.58528 5.76642 5.16064C5.94231 4.736 6.20012 4.35016 6.52513 4.02516C6.85013 3.70015 7.23597 3.44234 7.66061 3.26645C8.08525 3.09056 8.54037 3.00003 9 3.00003C9.92826 3.00003 10.8185 3.36878 11.4749 4.02516C12.1313 4.68153 12.5 5.57177 12.5 6.50003C12.5 7.42829 12.1313 8.31853 11.4749 8.9749C10.8185 9.63128 9.92826 10 9 10ZM9 8.00003C9.39782 8.00003 9.77936 7.842 10.0607 7.56069C10.342 7.27939 10.5 6.89786 10.5 6.50003C10.5 6.10221 10.342 5.72067 10.0607 5.43937C9.77936 5.15807 9.39782 5.00003 9 5.00003C8.60218 5.00003 8.22064 5.15807 7.93934 5.43937C7.65804 5.72067 7.5 6.10221 7.5 6.50003C7.5 6.89786 7.65804 7.27939 7.93934 7.56069C8.22064 7.842 8.60218 8.00003 9 8.00003Z" fill="#03053D"/>
</svg>
