<svg width="16" height="24" viewBox="0 0 16 24" fill="none" xmlns="http://www.w3.org/2000/svg">
<path d="M13.5667 0.5H1.68336C1.27683 0.500457 0.887089 0.66215 0.599632 0.949607C0.312175 1.23706 0.150481 1.62681 0.150024 2.03333V21.9667C0.150481 22.3732 0.312175 22.7629 0.599632 23.0504C0.887089 23.3378 1.27683 23.4995 1.68336 23.5H13.5667C13.9732 23.4995 14.363 23.3378 14.6504 23.0504C14.9379 22.7629 15.0996 22.3732 15.1 21.9667V2.03333C15.0996 1.62681 14.9379 1.23706 14.6504 0.949607C14.363 0.66215 13.9732 0.500457 13.5667 0.5ZM13.5667 2.03333V3.56667H1.68336V2.03333H13.5667ZM13.5667 5.1L13.5672 15.8333H1.68336V5.1H13.5667ZM13.5667 21.9667H1.68336V17.3667H13.5675V21.9667H13.5667Z" fill="#141D1D"/>
</svg>
