<svg width="20" height="26" viewBox="0 0 20 26" fill="none" xmlns="http://www.w3.org/2000/svg">
<path d="M9.69288 25.825H10.0571C11.5872 25.8233 13.0541 25.2147 14.1361 24.1327C15.218 23.0508 15.8266 21.5839 15.8284 20.0538V17.0777C16.9363 16.1883 17.8302 15.0612 18.444 13.7799C19.0579 12.4986 19.3761 11.0958 19.375 9.67499C19.375 4.43674 15.1133 0.175049 9.875 0.175049C4.63669 0.175049 0.375003 4.43674 0.375003 9.67499C0.373925 11.0958 0.692081 12.4986 1.30597 13.78C1.91985 15.0613 2.81377 16.1883 3.9217 17.0777V20.0538C3.92341 21.5839 4.53199 23.0508 5.61393 24.1327C6.69586 25.2147 8.16279 25.8233 9.69288 25.825ZM10.0571 24.115H9.69288C8.87938 24.114 8.08488 23.869 7.41205 23.4118C6.73922 22.9545 6.21897 22.306 5.91855 21.55H13.8315C13.5311 22.306 13.0108 22.9545 12.338 23.4118C11.6651 23.869 10.8706 24.114 10.0571 24.115ZM14.1184 19.84H5.63169V17.7025H14.1184V19.84ZM2.085 9.67499C2.085 5.37985 5.57959 1.88505 9.875 1.88505C14.1704 1.88505 17.665 5.37985 17.665 9.67499C17.6624 10.9008 17.3718 12.1088 16.8165 13.2017C16.2613 14.2945 15.457 15.2416 14.4685 15.9666L14.4332 15.9925H5.31679L5.28125 15.9666C4.29282 15.2416 3.48859 14.2945 2.93339 13.2017C2.3782 12.1088 2.08759 10.9008 2.085 9.67499Z" fill="#111615"/>
</svg>
