<svg width="23" height="22" viewBox="0 0 23 22" fill="none" xmlns="http://www.w3.org/2000/svg">
<path d="M21.2756 6.76806C22.3069 4.29021 22.375 2.22763 21.1361 0.992144C19.761 -0.382911 16.463 0.0289184 12.9572 1.67967H12.5454C10.0676 1.67967 7.66466 2.57483 5.87778 4.15408C4.36316 5.52914 3.2638 7.31602 2.78391 9.31054C3.12767 8.89871 5.05068 6.62849 7.25283 5.39301C7.3209 5.39301 7.86886 5.04924 7.86886 5.04924C7.80079 5.04924 6.7695 6.08053 6.56531 6.28473C1.75262 11.237 -1.06556 18.7283 1.13315 20.927C2.57627 22.3701 5.19025 22.0264 8.21262 20.379C9.51961 20.9951 10.9627 21.2708 12.5454 21.2708C14.608 21.2708 16.531 20.7228 18.1818 19.62C19.9006 18.5207 21.1361 16.8018 21.8951 14.8108H16.531C15.8435 16.1143 14.2642 17.0095 12.6135 17.0095C10.2752 17.0095 8.34875 15.083 8.28413 12.8843V12.6767H22.3069V12.4725C22.3069 12.1287 22.375 11.7169 22.375 11.4412C22.375 9.79043 21.9632 8.21118 21.2756 6.76806ZM2.64434 20.5152C1.54498 19.4158 1.88875 17.2852 3.19574 14.7427C3.8152 16.4615 4.84649 17.9727 6.15004 19.0721C6.56531 19.4158 7.0452 19.7596 7.5251 20.0353C5.32638 21.2027 3.5395 21.4103 2.64434 20.5152ZM16.7386 10.0661H8.35219V9.99807C8.48832 7.86742 10.4828 6.01247 12.8177 6.01247C15.0198 6.01247 16.8067 7.73129 16.9428 9.99807V10.0661H16.7386ZM20.9319 6.21667C20.5201 5.52914 19.9687 4.84161 19.3492 4.29365C18.3894 3.40193 17.2722 2.69996 16.0511 2.23107C18.2498 1.19978 20.1048 1.06021 21.068 2.02344C21.8236 2.9186 21.7555 4.42978 20.9319 6.21667C20.9319 6.28473 20.9319 6.28473 20.9319 6.21667Z" fill="#19201D"/>
</svg>
