<svg width="18" height="24" viewBox="0 0 18 24" fill="none" xmlns="http://www.w3.org/2000/svg">
<mask id="path-1-inside-1_126_3960" fill="white">
<path d="M9.12489 15.4C10.3541 15.3986 11.5326 14.9206 12.4018 14.0707C13.271 13.2208 13.7599 12.0685 13.7613 10.8666V5.19996C13.7613 3.99764 13.2728 2.84457 12.4033 1.99441C11.5338 1.14424 10.3545 0.666626 9.12489 0.666626C7.89525 0.666626 6.71597 1.14424 5.84648 1.99441C4.977 2.84457 4.48853 3.99764 4.48853 5.19996V10.8666C4.48991 12.0685 4.97882 13.2208 5.84801 14.0707C6.7172 14.9206 7.89567 15.3986 9.12489 15.4ZM6.03398 5.19996C6.03398 4.39842 6.35963 3.6297 6.93929 3.06293C7.51894 2.49615 8.30513 2.17774 9.12489 2.17774C9.94465 2.17774 10.7308 2.49615 11.3105 3.06293C11.8901 3.6297 12.2158 4.39842 12.2158 5.19996V10.8666C12.2158 11.6682 11.8901 12.4369 11.3105 13.0037C10.7308 13.5704 9.94465 13.8888 9.12489 13.8888C8.30513 13.8888 7.51894 13.5704 6.93929 13.0037C6.35963 12.4369 6.03398 11.6682 6.03398 10.8666V5.19996Z"/>
</mask>
<path d="M9.12489 15.4C10.3541 15.3986 11.5326 14.9206 12.4018 14.0707C13.271 13.2208 13.7599 12.0685 13.7613 10.8666V5.19996C13.7613 3.99764 13.2728 2.84457 12.4033 1.99441C11.5338 1.14424 10.3545 0.666626 9.12489 0.666626C7.89525 0.666626 6.71597 1.14424 5.84648 1.99441C4.977 2.84457 4.48853 3.99764 4.48853 5.19996V10.8666C4.48991 12.0685 4.97882 13.2208 5.84801 14.0707C6.7172 14.9206 7.89567 15.3986 9.12489 15.4ZM6.03398 5.19996C6.03398 4.39842 6.35963 3.6297 6.93929 3.06293C7.51894 2.49615 8.30513 2.17774 9.12489 2.17774C9.94465 2.17774 10.7308 2.49615 11.3105 3.06293C11.8901 3.6297 12.2158 4.39842 12.2158 5.19996V10.8666C12.2158 11.6682 11.8901 12.4369 11.3105 13.0037C10.7308 13.5704 9.94465 13.8888 9.12489 13.8888C8.30513 13.8888 7.51894 13.5704 6.93929 13.0037C6.35963 12.4369 6.03398 11.6682 6.03398 10.8666V5.19996Z" fill="#101D18"/>
<path d="M9.12489 15.4L9.11391 25.4L9.12489 25.4L9.13587 25.4L9.12489 15.4ZM13.7613 10.8666L23.7613 10.8781V10.8666H13.7613ZM9.12489 0.666626V-9.33337V0.666626ZM4.48853 10.8666H-5.51148L-5.51147 10.8781L4.48853 10.8666ZM9.12489 2.17774V-7.82226V2.17774ZM12.2158 5.19996H2.2158H12.2158ZM6.03398 10.8666H-3.96602H6.03398ZM9.13587 25.4C12.9419 25.3958 16.6348 23.9176 19.3929 21.2208L5.41059 6.92062C6.43038 5.92349 7.76631 5.40145 9.11391 5.39997L9.13587 25.4ZM19.3929 21.2208C22.1587 18.5165 23.7567 14.8016 23.7612 10.8781L3.76126 10.8551C3.763 9.33548 4.38321 7.92517 5.41059 6.92062L19.3929 21.2208ZM23.7613 10.8666V5.19996H3.76125V10.8666H23.7613ZM23.7613 5.19996C23.7613 1.27204 22.1633 -2.44833 19.3945 -5.15566L5.41212 9.14447C4.38223 8.13747 3.76125 6.72325 3.76125 5.19996H23.7613ZM19.3945 -5.15566C16.6332 -7.85553 12.9351 -9.33337 9.12489 -9.33337V10.6666C7.77397 10.6666 6.43437 10.144 5.41212 9.14447L19.3945 -5.15566ZM9.12489 -9.33337C5.31469 -9.33337 1.61654 -7.85553 -1.14469 -5.15566L12.8377 9.14447C11.8154 10.144 10.4758 10.6666 9.12489 10.6666V-9.33337ZM-1.14469 -5.15566C-3.91355 -2.44833 -5.51147 1.27204 -5.51147 5.19996H14.4885C14.4885 6.72325 13.8675 8.13748 12.8377 9.14447L-1.14469 -5.15566ZM-5.51147 5.19996V10.8666H14.4885V5.19996H-5.51147ZM-5.51147 10.8781C-5.50696 14.8016 -3.90892 18.5165 -1.14317 21.2208L12.8392 6.92062C13.8666 7.92517 14.4868 9.33548 14.4885 10.8551L-5.51147 10.8781ZM-1.14317 21.2208C1.615 23.9176 5.30788 25.3958 9.11391 25.4L9.13587 5.39997C10.4835 5.40145 11.8194 5.92349 12.8392 6.92062L-1.14317 21.2208ZM16.034 5.19996C16.034 7.12402 15.2502 8.9226 13.9305 10.213L-0.0518909 -4.08714C-2.53092 -1.6632 -3.96602 1.67281 -3.96602 5.19996H16.034ZM13.9305 10.213C12.6184 11.4959 10.8857 12.1777 9.12489 12.1777V-7.82226C5.72457 -7.82226 2.41951 -6.50362 -0.0518909 -4.08714L13.9305 10.213ZM9.12489 12.1777C7.36409 12.1777 5.6314 11.4959 4.31931 10.213L18.3017 -4.08714C15.8303 -6.50362 12.5252 -7.82226 9.12489 -7.82226V12.1777ZM4.31931 10.213C2.9996 8.92261 2.2158 7.12403 2.2158 5.19996H22.2158C22.2158 1.67281 20.7807 -1.6632 18.3017 -4.08714L4.31931 10.213ZM2.2158 5.19996V10.8666H22.2158V5.19996H2.2158ZM2.2158 10.8666C2.2158 8.94256 2.99961 7.14397 4.31931 5.85359L18.3017 20.1537C20.7807 17.7298 22.2158 14.3938 22.2158 10.8666H2.2158ZM4.31931 5.85359C5.63139 4.57067 7.36408 3.88885 9.12489 3.88885V23.8888C12.5252 23.8888 15.8303 22.5702 18.3017 20.1537L4.31931 5.85359ZM9.12489 3.88885C10.8857 3.88885 12.6184 4.57067 13.9305 5.85359L-0.0518909 20.1537C2.41951 22.5702 5.72457 23.8888 9.12489 23.8888V3.88885ZM13.9305 5.85359C15.2502 7.14398 16.034 8.94256 16.034 10.8666H-3.96602C-3.96602 14.3938 -2.53092 17.7298 -0.0518909 20.1537L13.9305 5.85359ZM16.034 10.8666V5.19996H-3.96602V10.8666H16.034Z" fill="#121615" mask="url(#path-1-inside-1_126_3960)"/>
<mask id="path-3-inside-2_126_3960" fill="white">
<path d="M16.0795 8.22217V10.8666C16.0795 14.6161 12.9597 17.6666 9.125 17.6666C5.29034 17.6666 2.17045 14.6161 2.17045 10.8666V8.22217H0.625V10.8666C0.625 15.1947 4.02616 18.76 8.35227 19.143V23.3333H9.89773V19.143C14.2238 18.76 17.625 15.1947 17.625 10.8666V8.22217H16.0795Z"/>
</mask>
<path d="M16.0795 8.22217V10.8666C16.0795 14.6161 12.9597 17.6666 9.125 17.6666C5.29034 17.6666 2.17045 14.6161 2.17045 10.8666V8.22217H0.625V10.8666C0.625 15.1947 4.02616 18.76 8.35227 19.143V23.3333H9.89773V19.143C14.2238 18.76 17.625 15.1947 17.625 10.8666V8.22217H16.0795Z" fill="#121615"/>
<path d="M16.0795 8.22217V-1.77783H6.07955V8.22217H16.0795ZM2.17045 8.22217H12.1705V-1.77783H2.17045V8.22217ZM0.625 8.22217V-1.77783H-9.375V8.22217H0.625ZM8.35227 19.143H18.3523V9.98926L9.23419 9.18198L8.35227 19.143ZM8.35227 23.3333H-1.64773V33.3333H8.35227V23.3333ZM9.89773 23.3333V33.3333H19.8977V23.3333H9.89773ZM9.89773 19.143L9.01581 9.18198L-0.102273 9.98926V19.143H9.89773ZM17.625 8.22217H27.625V-1.77783H17.625V8.22217ZM6.07955 8.22217V10.8666H26.0795V8.22217H6.07955ZM6.07955 10.8666C6.07955 8.88255 7.64986 7.66661 9.125 7.66661V27.6666C18.2695 27.6666 26.0795 20.3496 26.0795 10.8666H6.07955ZM9.125 7.66661C10.6001 7.66661 12.1705 8.88255 12.1705 10.8666H-7.82955C-7.82955 20.3496 -0.0194625 27.6666 9.125 27.6666V7.66661ZM12.1705 10.8666V8.22217H-7.82955V10.8666H12.1705ZM2.17045 -1.77783H0.625V18.2222H2.17045V-1.77783ZM-9.375 8.22217V10.8666H10.625V8.22217H-9.375ZM-9.375 10.8666C-9.375 20.611 -1.77889 28.2852 7.47036 29.104L9.23419 9.18198C9.83121 9.23484 10.625 9.77834 10.625 10.8666H-9.375ZM-1.64773 19.143V23.3333H18.3523V19.143H-1.64773ZM8.35227 33.3333H9.89773V13.3333H8.35227V33.3333ZM19.8977 23.3333V19.143H-0.102273V23.3333H19.8977ZM10.7796 29.104C20.0289 28.2852 27.625 20.611 27.625 10.8666H7.625C7.625 9.77834 8.41879 9.23484 9.01581 9.18198L10.7796 29.104ZM27.625 10.8666V8.22217H7.625V10.8666H27.625ZM17.625 -1.77783H16.0795V18.2222H17.625V-1.77783Z" fill="#121615" mask="url(#path-3-inside-2_126_3960)"/>
</svg>
