<svg width="21" height="26" viewBox="0 0 21 26" fill="none" xmlns="http://www.w3.org/2000/svg">
<path d="M19.125 4.27604H12.0678L15.0886 0.5H13.203L10.1822 4.27604H10.0886L7.06779 0.5H5.18221L8.20304 4.27604H1.125C0.859878 4.27643 0.605704 4.40825 0.418234 4.64258C0.230765 4.87692 0.125309 5.19464 0.125 5.52604V20.9427C0.125309 21.2741 0.230765 21.5918 0.418234 21.8262C0.605704 22.0605 0.859878 22.1923 1.125 22.1927H5.79167V25.5H15.125V22.1927H19.125C19.3901 22.1923 19.6443 22.0605 19.8318 21.8262C20.0192 21.5918 20.1247 21.2741 20.125 20.9427V5.52604C20.1247 5.19464 20.0192 4.87692 19.8318 4.64258C19.6443 4.40825 19.3901 4.27643 19.125 4.27604ZM13.7917 23.8333H7.125V22.1927H13.7917V23.8333ZM18.7917 20.526H1.45833V5.94271H18.7917V20.526Z" fill="#121716"/>
</svg>
