<svg width="24" height="18" viewBox="0 0 24 18" fill="none" xmlns="http://www.w3.org/2000/svg">
<path d="M2.61538 0.0703125C1.92174 0.0703125 1.25651 0.345861 0.766028 0.836341C0.275549 1.32682 0 1.99205 0 2.6857L0 14.4549C0 15.1486 0.275549 15.8138 0.766028 16.3043C1.25651 16.7948 1.92174 17.0703 2.61538 17.0703H6.53846V0.0703125H2.61538ZM20.9231 0.0703125H17V17.0703H20.9231C21.6167 17.0703 22.2819 16.7948 22.7724 16.3043C23.2629 15.8138 23.5385 15.1486 23.5385 14.4549V2.6857C23.5385 1.99205 23.2629 1.32682 22.7724 0.836341C22.2819 0.345861 21.6167 0.0703125 20.9231 0.0703125Z" fill="#D52B1E"/>
<path d="M6.53906 0.0703125H17.0006V17.0703H6.53906V0.0703125Z" fill="white"/>
<path d="M12.1719 11.2593C12.9552 11.3502 13.6575 11.432 14.4401 11.5215L14.2407 10.8664C14.226 10.81 14.2281 10.7506 14.2465 10.6953C14.265 10.6401 14.2991 10.5914 14.3447 10.5551L16.6194 8.70215L16.1486 8.48049C15.9414 8.40661 15.9982 8.28957 16.0734 8.00842L16.4206 6.74257L15.0992 7.02176C14.9704 7.04138 14.8847 6.95965 14.8651 6.88118L14.6945 6.28553L13.6496 7.45853C13.5012 7.64684 13.2004 7.64684 13.2939 7.21268L13.7405 4.83661L13.1409 5.14718C12.9729 5.24134 12.8049 5.25703 12.7114 5.08899L11.8842 3.54199V3.58057V3.54199L11.0571 5.08899C10.963 5.25703 10.7949 5.24134 10.6269 5.14718L10.028 4.83661L10.4746 7.21268C10.5687 7.64684 10.2673 7.64684 10.1189 7.45853L9.07401 6.28618L8.90401 6.88184C8.8844 6.9603 8.79809 7.04203 8.66928 7.02242L7.34786 6.74322L7.69505 8.00907C7.76894 8.29022 7.82648 8.40726 7.61921 8.48115L7.14844 8.7028L9.42317 10.5558C9.5134 10.6258 9.55917 10.752 9.52648 10.867L9.32705 11.5222L11.5959 11.26C11.6652 11.26 11.711 11.2986 11.7103 11.3783L11.5704 13.8002H12.1955L12.0562 11.3783C12.0575 11.2979 12.1026 11.2593 12.1719 11.2593Z" fill="#D52B1E"/>
</svg>
