<svg width="24" height="18" viewBox="0 0 24 18" fill="none" xmlns="http://www.w3.org/2000/svg">
<path d="M3.47171 0.839844C2.80581 0.839844 2.16719 1.10437 1.69632 1.57523C1.22546 2.04609 0.960938 2.68472 0.960938 3.35061L0.960938 14.6491C0.960938 15.315 1.22546 15.9536 1.69632 16.4245C2.16719 16.8953 2.80581 17.1598 3.47171 17.1598H8.49325V0.839844H3.47171Z" fill="#009A49"/>
<path d="M8.49414 0.839844H16.0264V17.1598H8.49414V0.839844Z" fill="#EEEEEE"/>
<path d="M21.045 0.839844H16.0234V17.1598H21.045C21.7109 17.1598 22.3495 16.8953 22.8204 16.4245C23.2912 15.9536 23.5557 15.315 23.5557 14.6491V3.35061C23.5557 2.68472 23.2912 2.04609 22.8204 1.57523C22.3495 1.10437 21.7109 0.839844 21.045 0.839844Z" fill="#009A49"/>
</svg>
