<svg width="21" height="21" viewBox="0 0 21 21" fill="none" xmlns="http://www.w3.org/2000/svg">
<path fill-rule="evenodd" clip-rule="evenodd" d="M15.6797 2.91C15.6797 1.58 16.7597 0.5 18.0897 0.5C19.4197 0.5 20.4997 1.58 20.4997 2.91C20.4997 4.24 19.4197 5.32 18.0897 5.32C16.7597 5.32 15.6797 4.24 15.6797 2.91ZM11.83 13.2593L14.72 9.5303L14.68 9.5503C14.84 9.3303 14.87 9.0503 14.76 8.8003C14.651 8.5503 14.41 8.3803 14.151 8.3603C13.88 8.3303 13.611 8.4503 13.45 8.6703L11.031 11.8003L8.26 9.6203C8.09 9.4903 7.89 9.4393 7.69 9.4603C7.491 9.4903 7.311 9.5993 7.19 9.7593L4.231 13.6103L4.17 13.7003C4 14.0193 4.08 14.4293 4.38 14.6503C4.52 14.7403 4.67 14.8003 4.84 14.8003C5.071 14.8103 5.29 14.6893 5.43 14.5003L7.94 11.2693L10.79 13.4103L10.88 13.4693C11.2 13.6393 11.6 13.5603 11.83 13.2593ZM13.95 2.2803C13.91 2.5303 13.89 2.7803 13.89 3.0303C13.89 5.2803 15.71 7.0993 17.95 7.0993C18.2 7.0993 18.44 7.0703 18.69 7.0303V15.0993C18.69 18.4903 16.69 20.5003 13.29 20.5003H5.901C2.5 20.5003 0.5 18.4903 0.5 15.0993V7.7003C0.5 4.3003 2.5 2.2803 5.901 2.2803H13.95Z" fill="#1D3A70"/>
</svg>
