<svg width="20" height="17" viewBox="0 0 20 17" fill="none" xmlns="http://www.w3.org/2000/svg">
<path d="M16.25 1.5H4.25C2.59315 1.5 1.25 2.84315 1.25 4.5V12.5C1.25 14.1569 2.59315 15.5 4.25 15.5H16.25C17.9069 15.5 19.25 14.1569 19.25 12.5V4.5C19.25 2.84315 17.9069 1.5 16.25 1.5Z" fill="#1D3A70"/>
<path d="M1.25 6.5H19.25M5.25 11.5H5.26M9.25 11.5H11.25M4.25 1.5H16.25C17.9069 1.5 19.25 2.84315 19.25 4.5V12.5C19.25 14.1569 17.9069 15.5 16.25 15.5H4.25C2.59315 15.5 1.25 14.1569 1.25 12.5V4.5C1.25 2.84315 2.59315 1.5 4.25 1.5Z" stroke="white" stroke-width="1.5" stroke-linecap="round" stroke-linejoin="round"/>
</svg>
