<svg width="83" height="73" viewBox="0 0 83 73" fill="none" xmlns="http://www.w3.org/2000/svg">
<path opacity="0.1" d="M100 -29.6667L100 -50L50.5 -50M100 -29.6667L100 9.98333M100 -29.6667L83.5 -9.33333M100 -29.6667L68.65 -29.6667M1 -29.6667L1 -50L17.5 -50M1 -29.6667L16.675 -10.35M1 -29.6667L34 -29.6667M1 -29.6667L17.5 -50M1 -29.6667L0.999999 9.98333M16.675 -10.35L16.675 30.3167M16.675 -10.35L34 -29.6667M16.675 30.3167L0.999997 49.6333M16.675 30.3167L0.999999 9.98333M16.675 30.3167L48.85 31.3333M16.675 30.3167L33.175 9.98333M0.999997 49.6333L0.999996 72L19.15 72M0.999997 49.6333L19.15 72M0.999997 49.6333L34 49.6333M0.999997 49.6333L0.999999 9.98333M19.15 72L47.2 72M34 49.6333L48.85 31.3333M34 49.6333L47.2 72M48.85 31.3333L64.525 50.65M48.85 31.3333L82.675 31.3333M48.85 31.3333L33.175 9.98333M64.525 50.65L47.2 72M64.525 50.65L98.35 50.65M100 50.65L100 72L83.5 72M100 50.65L98.35 50.65M100 50.65L100 9.98333M100 50.65L83.5 72M47.2 72L83.5 72M82.675 31.3333L98.35 50.65M82.675 31.3333L100 9.98333M82.675 31.3333L67 11M82.675 31.3333L83.5 -9.33333M67 11L83.5 -9.33333M67 11L33.175 9.98333M83.5 -9.33333L68.65 -29.6667M83.5 -9.33333L49.675 -10.35M68.65 -29.6667L67 -29.6667M50.5 -50L67 -29.6667M50.5 -50L34 -29.6667M50.5 -50L17.5 -50M67 -29.6667L34 -29.6667M34 -29.6667L49.675 -10.35M34 -29.6667L33.175 9.98333M49.675 -10.35L33.175 9.98333" stroke="white"/>
</svg>
